<svg width="24" height="24" viewBox="0 0 24 24" fill="none" xmlns="http://www.w3.org/2000/svg">
<path fill-rule="evenodd" clip-rule="evenodd" d="M12 24C18.6274 24 24 18.6274 24 12C24 5.37258 18.6274 0 12 0C5.37258 0 0 5.37258 0 12C0 18.6274 5.37258 24 12 24ZM12 6.5C10.7574 6.5 9.75 7.50736 9.75 8.75V11H14.25V8.75C14.25 7.50736 13.2426 6.5 12 6.5ZM8 11H8.25V8.75C8.25 6.67893 9.92893 5 12 5C14.0711 5 15.75 6.67893 15.75 8.75V11H16C16.5523 11 17 11.4477 17 12V18C17 18.5523 16.5523 19 16 19H8C7.44772 19 7 18.5523 7 18V12C7 11.4477 7.44772 11 8 11Z" fill="black"/>
</svg>
